<svg xmlns="http://www.w3.org/2000/svg" viewBox="0 0 1600 900" fill="none">
  <defs>
    <linearGradient id="sky" x1="800" y1="0" x2="800" y2="480" gradientUnits="userSpaceOnUse">
      <stop stop-color="#c8d8dd"/>
      <stop offset="1" stop-color="#9fb7ba"/>
    </linearGradient>
    <linearGradient id="sea" x1="1150" y1="80" x2="1500" y2="760" gradientUnits="userSpaceOnUse">
      <stop stop-color="#87a6b5"/>
      <stop offset="1" stop-color="#5d7e8f"/>
    </linearGradient>
    <linearGradient id="hillBack" x1="620" y1="360" x2="680" y2="860" gradientUnits="userSpaceOnUse">
      <stop stop-color="#7b9b64"/>
      <stop offset="1" stop-color="#466044"/>
    </linearGradient>
    <linearGradient id="hillFront" x1="460" y1="420" x2="520" y2="900" gradientUnits="userSpaceOnUse">
      <stop stop-color="#9ab56f"/>
      <stop offset="1" stop-color="#567246"/>
    </linearGradient>
    <radialGradient id="sun" cx="0" cy="0" r="1" gradientUnits="userSpaceOnUse" gradientTransform="translate(1150 154) rotate(90) scale(180 180)">
      <stop stop-color="#edf4ef" stop-opacity=".88"/>
      <stop offset="1" stop-color="#edf4ef" stop-opacity="0"/>
    </radialGradient>
  </defs>

  <rect width="1600" height="900" fill="url(#sky)"/>
  <circle cx="1150" cy="154" r="180" fill="url(#sun)"/>

  <path d="M1055 44C1292 82 1489 224 1600 450V900H1012C1024 792 1018 658 986 520C959 406 978 236 1055 44Z" fill="url(#sea)"/>
  <path d="M1600 0V310C1520 218 1454 164 1368 122C1329 103 1280 84 1218 68L1600 0Z" fill="#d4e0df" fill-opacity=".65"/>

  <path d="M0 602C154 502 304 442 455 432C650 419 782 481 931 550C1110 633 1280 654 1444 604C1497 588 1549 568 1600 546V900H0V602Z" fill="url(#hillBack)"/>
  <path d="M0 690C118 628 224 582 332 560C486 528 612 550 754 620C937 711 1151 748 1364 706C1444 690 1522 664 1600 626V900H0V690Z" fill="url(#hillFront)"/>
  <path d="M406 654C528 622 634 635 759 704C910 788 1083 822 1249 790C1329 774 1406 750 1488 708" stroke="#d9e7cd" stroke-width="10" stroke-linecap="round" opacity=".72"/>

  <path d="M184 630C241 604 310 602 381 626C462 654 534 712 619 746" stroke="#f6ebd7" stroke-width="16" stroke-linecap="round" opacity=".74"/>
  <path d="M260 608C284 580 315 564 355 560C396 556 436 570 466 598" stroke="#8da274" stroke-width="12" stroke-linecap="round" opacity=".55"/>

  <g opacity=".86">
    <rect x="274" y="520" width="56" height="42" rx="4" fill="#d5bea0"/>
    <path d="M264 520L302 488L340 520H264Z" fill="#705644"/>
    <rect x="300" y="538" width="12" height="24" rx="2" fill="#7e624b"/>
  </g>

  <g opacity=".78">
    <rect x="626" y="626" width="76" height="56" rx="6" fill="#ccb089"/>
    <path d="M612 626L664 590L716 626H612Z" fill="#65503d"/>
    <rect x="655" y="650" width="16" height="32" rx="2" fill="#735840"/>
  </g>

  <g opacity=".72">
    <rect x="1120" y="590" width="62" height="46" rx="5" fill="#cbb294"/>
    <path d="M1109 590L1151 560L1193 590H1109Z" fill="#6a5746"/>
  </g>

  <path d="M1416 324C1446 336 1471 358 1492 390" stroke="#f1f7f8" stroke-width="6" stroke-linecap="round" opacity=".72"/>
  <path d="M1456 298C1484 310 1509 332 1532 364" stroke="#f1f7f8" stroke-width="6" stroke-linecap="round" opacity=".58"/>
</svg>
