<svg width="363" height="363" viewBox="0 0 363 363" fill="none" xmlns="http://www.w3.org/2000/svg">
<path d="M362.635 181.317C362.635 281.456 281.456 362.635 181.317 362.635C81.1785 362.635 0 281.456 0 181.317C0 81.1785 81.1785 0 181.317 0C281.456 0 362.635 81.1785 362.635 181.317Z" fill="white"/>
<path fill-rule="evenodd" clip-rule="evenodd" d="M157.62 27.6699C174.165 27.6699 187.577 41.0822 187.577 57.627C187.577 64.0429 185.56 69.988 182.126 74.8623C161.764 104.827 157.368 181.54 176.722 188.466C196.027 195.374 221.855 160.983 233.689 123.054C237.261 110.504 248.81 101.313 262.506 101.313C279.051 101.314 292.463 114.726 292.463 131.271C292.463 145.153 283.019 156.83 270.206 160.229C228.055 172.49 189.432 192.754 200.1 228.848C210.783 264.993 233.94 265.975 263.048 263.34C263.89 263.254 264.744 263.21 265.608 263.21C279.363 263.21 290.514 274.361 290.514 288.115C290.514 301.87 279.363 313.02 265.608 313.021C256.07 313.021 247.783 307.658 243.6 299.784C228.234 272.18 216.397 258.798 169.108 269.403C166.138 270.141 163.03 270.532 159.831 270.532C143.401 270.532 129.384 260.205 123.916 245.688C105.688 200.737 88.5947 199.454 58.625 201.469C58.0247 201.515 57.4177 201.537 56.8057 201.537C43.7811 201.537 33.2227 190.979 33.2227 177.954C33.2227 164.929 43.7811 154.37 56.8057 154.37C65.5867 154.37 73.2471 159.17 77.3066 166.288C91.1442 189.506 114.658 213.149 137.242 197.37C159.886 181.55 156.201 106.972 133.545 75.457C129.85 70.4753 127.663 64.3061 127.663 57.627C127.663 41.0823 141.076 27.6701 157.62 27.6699ZM268.664 271.691C258.792 271.692 250.789 279.695 250.789 289.566C250.789 299.438 258.792 307.44 268.664 307.44C278.536 307.44 286.539 299.438 286.539 289.566C286.539 279.694 278.536 271.691 268.664 271.691ZM56.3047 160.111C46.4328 160.111 38.4297 168.114 38.4297 177.986C38.4299 187.858 46.4329 195.861 56.3047 195.861C66.1766 195.861 74.1795 187.858 74.1797 177.986C74.1797 168.114 66.1767 160.111 56.3047 160.111ZM263.828 107.658C252.531 107.658 243.373 116.817 243.373 128.113C243.373 139.41 252.531 148.567 263.828 148.567C275.125 148.567 284.282 139.41 284.282 128.113C284.282 116.817 275.125 107.658 263.828 107.658ZM158.299 33.8057C146.545 33.8057 137.017 43.334 137.017 55.0879C137.017 66.8419 146.545 76.371 158.299 76.3711C170.053 76.3711 179.581 66.8419 179.581 55.0879C179.581 43.334 170.053 33.8057 158.299 33.8057Z" fill="#B45309"/>
</svg>
