<svg width="260" height="286" viewBox="0 0 260 286" fill="none" xmlns="http://www.w3.org/2000/svg">
<path d="M124.397 0C140.942 0 154.354 13.4123 154.354 29.957C154.354 36.373 152.338 42.3181 148.903 47.1924C128.542 77.1571 124.146 153.871 143.499 160.796C162.805 167.704 188.632 133.313 200.467 95.3838C204.038 82.8336 215.588 73.6436 229.283 73.6436C245.828 73.6436 259.24 87.0558 259.24 103.601C259.24 117.483 249.797 129.16 236.983 132.559C194.832 144.82 156.209 165.084 166.877 201.178C177.56 237.323 200.718 238.305 229.825 235.67C230.667 235.584 231.521 235.54 232.386 235.54C246.14 235.54 257.291 246.691 257.291 260.445C257.291 274.2 246.14 285.35 232.386 285.351C222.847 285.351 214.561 279.989 210.377 272.114C195.011 244.511 183.175 231.128 135.886 241.733C132.915 242.471 129.807 242.862 126.608 242.862C110.179 242.862 96.1613 232.535 90.6934 218.018C72.4649 173.067 55.3721 171.784 25.4023 173.799C24.8021 173.845 24.195 173.867 23.583 173.867C10.5585 173.867 3.2094e-05 163.309 0 150.284C0 137.26 10.5584 126.7 23.583 126.7C32.364 126.7 40.0245 131.5 44.084 138.618C57.9216 161.836 81.4352 185.479 104.02 169.7C126.663 153.88 122.978 79.302 100.322 47.7871C96.6269 42.8054 94.4404 36.6362 94.4404 29.957C94.4406 13.4124 107.853 0.000153554 124.397 0ZM235.441 244.021C225.57 244.022 217.566 252.025 217.566 261.896C217.567 271.768 225.57 279.77 235.441 279.771C245.313 279.771 253.316 271.768 253.316 261.896C253.316 252.024 245.313 244.021 235.441 244.021ZM23.082 132.441C13.2101 132.442 5.20703 140.444 5.20703 150.316C5.20721 160.188 13.2103 168.191 23.082 168.191C32.9539 168.191 40.9569 160.188 40.957 150.316C40.957 140.444 32.954 132.441 23.082 132.441ZM230.605 79.9883C219.309 79.9883 210.15 89.1467 210.15 100.443C210.15 111.74 219.309 120.897 230.605 120.897C241.902 120.897 251.059 111.74 251.06 100.443C251.06 89.1468 241.902 79.9885 230.605 79.9883ZM125.076 6.13574C113.322 6.13579 103.794 15.6641 103.794 27.418C103.794 39.172 113.322 48.7011 125.076 48.7012C136.83 48.7012 146.358 39.172 146.358 27.418C146.358 15.6641 136.83 6.13574 125.076 6.13574Z" fill="#b45309"/>
</svg>
